# xmcd
#
# Track frame offsets:
#	150
#	15407
#	29432
#	46552
#	62462
#	79475
#	97605
#	112675
#	130130
#	147232
#	167972
#	187935
#	205390
#	219705
#	236992
#
# Disc length: 3353 seconds
#
# Revision: 1
# Processed by: cddbd v1.5.1PL2 Copyright (c) Steve Scherf et al.
# Submitted via: audiograbber 1.83.01
#
DISCID=c30d170f
DTITLE=Music Maestro Top Country Hit 90's Vol 35 - Mm6145
DYEAR=1900
DGENRE=Karaoke
TTITLE0=Brooks And Dunn - My Maria
TTITLE1=George Strait - Blue Clear Sky
TTITLE2=Martina Mcbride - Phones Are Ringin' All Over Town
TTITLE3=Sammy Kershaw - Meant To Be
TTITLE4=David Lee Murphy - Every Time I Get Around You
TTITLE5=Sawyer Brown - Treat Her Right
TTITLE6=Rhett Atkins - Don't Get Me Started
TTITLE7=Linda Davis - Love Story In The Making
TTITLE8=Bryan White - Between Now And Forever
TTITLE9=Neil Diamond And Waylon Jenni - One Good Love
TTITLE10=Mark Collie - Lipstick Don't Lie
TTITLE11=Baker And Myers - Years From Here
TTITLE12=Kim Richey - From Where I Stand
TTITLE13=Keith Gattis - Little Drops Of My Heart
TTITLE14=Ricochet - Daddy's Money
EXTD=
EXTT0=
EXTT1=
EXTT2=
EXTT3=
EXTT4=
EXTT5=
EXTT6=
EXTT7=
EXTT8=
EXTT9=
EXTT10=
EXTT11=
EXTT12=
EXTT13=
EXTT14=
PLAYORDER=
